<?xml version="1.0" encoding="UTF-8"?>
<svg width="30px" height="30px" viewBox="0 0 30 30" version="1.1" xmlns="http://www.w3.org/2000/svg" xmlns:xlink="http://www.w3.org/1999/xlink">
    <title>退出_悬停点击</title>
    <g id="评审改图" stroke="none" stroke-width="1" fill="none" fill-rule="evenodd">
        <g id="切图及按钮状态合集" transform="translate(-470.000000, -404.000000)" fill="#B4394B">
            <g id="退出" transform="translate(470.000000, 404.000000)">
                <path d="M15,0 C23.2842712,0 30,6.71572875 30,15 C30,23.2842712 23.2842712,30 15,30 C6.71572875,30 0,23.2842712 0,15 C0,6.71572875 6.71572875,0 15,0 Z M22.3063113,7.75912301 C21.5161331,7.0864429 20.3286832,7.12802745 19.5879876,7.87837575 L19.5879876,7.87837575 L14.6409478,12.8904125 L9.73905018,7.98883193 L9.60995123,7.87159481 L9.47537141,7.77264615 C8.65392619,7.21509291 7.59255743,7.3069375 6.91064303,7.9888519 L6.91064303,7.9888519 L6.80897762,8.09827532 C6.13120819,8.88401875 6.16509666,10.0717327 6.91064303,10.817279 L6.91064303,10.817279 L11.8309054,15.7358101 L6.94245694,20.688702 L6.82604451,20.8185709 L6.72797032,20.9537867 C6.17575253,21.7788131 6.27445469,22.8395482 6.96070079,23.5170796 L6.96070079,23.5170796 L7.07081908,23.6180065 C7.86099463,24.2906861 9.04844539,24.2491019 9.78914136,23.4987532 L9.78914136,23.4987532 L14.6586255,18.5635302 L19.6385454,23.5451814 L19.767684,23.6624582 L19.9022638,23.7614068 C20.7237091,24.3189601 21.7850778,24.2271155 22.4669922,23.5452011 L22.4669922,23.5452011 L22.5686576,23.4357777 C23.2464271,22.6500342 23.2125386,21.4623203 22.4669922,20.716774 L22.4669922,20.716774 L17.4679607,15.7174254 L22.434564,10.6885363 L22.5510844,10.5585581 L22.6491586,10.4233423 C23.2013761,9.59831636 23.1026744,8.537582 22.41643,7.86004996 L22.41643,7.86004996 Z" id="形状结合"></path>
            </g>
        </g>
    </g>
</svg>